<svg viewBox="0 0 240 240" xmlns="http://www.w3.org/2000/svg" role="img" aria-label="市の鳥 ピコぬどり">
  <rect width="240" height="240" fill="#f5f7fa"/>

  <!-- branch -->
  <path d="M40 190 C90 182, 150 182, 205 190" stroke="#8a7050" stroke-width="4" fill="none" stroke-linecap="round"/>

  <!-- tail -->
  <path d="M78 118 C50 108, 35 96, 26 80 C48 84, 68 96, 86 112 Z" fill="#2166ac"/>

  <!-- body -->
  <ellipse cx="128" cy="120" rx="52" ry="42" fill="#1a4b8c"/>
  <!-- belly -->
  <ellipse cx="134" cy="136" rx="34" ry="24" fill="#e8f0f9"/>

  <!-- wing -->
  <path d="M110 96 C130 92, 152 100, 160 122 C142 126, 120 122, 106 112 Z" fill="#0f3766"/>

  <!-- head -->
  <circle cx="178" cy="92" r="30" fill="#1a4b8c"/>
  <!-- head marking -->
  <path d="M160 78 C170 70, 190 70, 200 80 C188 84, 172 84, 160 78 Z" fill="#2166ac"/>

  <!-- eye -->
  <circle cx="188" cy="86" r="4.5" fill="#12210f"/>
  <circle cx="189.5" cy="84.5" r="1.3" fill="#fff"/>

  <!-- beak -->
  <path d="M204 92 L222 88 L206 100 Z" fill="#e8a23b"/>

  <!-- legs -->
  <path d="M118 158 L112 188" stroke="#e8a23b" stroke-width="4" stroke-linecap="round"/>
  <path d="M146 158 L152 188" stroke="#e8a23b" stroke-width="4" stroke-linecap="round"/>
  <path d="M105 190 L120 186 L112 195" stroke="#e8a23b" stroke-width="3" fill="none" stroke-linecap="round" stroke-linejoin="round"/>
  <path d="M143 190 L152 186 L160 195" stroke="#e8a23b" stroke-width="3" fill="none" stroke-linecap="round" stroke-linejoin="round"/>
</svg>
